<svg width="18" height="19" viewBox="0 0 18 19" fill="none" xmlns="http://www.w3.org/2000/svg">
<path d="M17.2174 8.81787H0.782596C0.350376 8.81787 0 8.98576 0 9.19287C0 9.39998 0.350376 9.56787 0.782596 9.56787H17.2174C17.6496 9.56787 18 9.39998 18 9.19287C18 8.98576 17.6496 8.81787 17.2174 8.81787Z" fill="white"/>
<path d="M0.782596 4.08936H17.2174C17.6496 4.08936 18 3.92146 18 3.71436C18 3.50725 17.6496 3.33936 17.2174 3.33936H0.782596C0.350376 3.33936 0 3.50725 0 3.71436C0 3.92146 0.350376 4.08936 0.782596 4.08936Z" fill="white"/>
<path d="M17.2174 14.2959H0.782596C0.350376 14.2959 0 14.4638 0 14.6709C0 14.878 0.350376 15.0459 0.782596 15.0459H17.2174C17.6496 15.0459 18 14.878 18 14.6709C18 14.4638 17.6496 14.2959 17.2174 14.2959Z" fill="white"/>
</svg>
