<svg width="16" height="16" viewBox="0 0 16 16" fill="none" xmlns="http://www.w3.org/2000/svg">
<path fill-rule="evenodd" clip-rule="evenodd" d="M8.02532 12.6841L3.67865 15.3388C3.57028 15.4046 3.4448 15.4368 3.31813 15.4312C3.19147 15.4256 3.06932 15.3825 2.96719 15.3073C2.86505 15.2322 2.78754 15.1284 2.74448 15.0091C2.70142 14.8899 2.69475 14.7605 2.72532 14.6375L3.98532 9.61881L0.330654 6.77481C0.228637 6.69589 0.152848 6.58798 0.113224 6.46523C0.073599 6.34248 0.0719878 6.21063 0.108601 6.08695C0.145215 5.96327 0.218344 5.85354 0.318403 5.77214C0.418461 5.69075 0.540779 5.64148 0.669321 5.63081L5.45065 5.23748L7.44532 0.588145C7.49467 0.472831 7.57682 0.37456 7.68155 0.305544C7.78629 0.236528 7.909 0.19981 8.03443 0.199952C8.15986 0.200094 8.28248 0.23709 8.38706 0.306343C8.49164 0.375596 8.57357 0.474053 8.62265 0.589478L10.6 5.23748L15.4133 5.63214C15.5416 5.64287 15.6638 5.69206 15.7637 5.77328C15.8636 5.8545 15.9367 5.96397 15.9734 6.0874C16.0102 6.21082 16.0088 6.34246 15.9695 6.4651C15.9303 6.58774 15.8549 6.69568 15.7533 6.77481L12.084 9.61881L13.3413 14.6401C13.3722 14.7633 13.3658 14.8929 13.3229 15.0124C13.28 15.1318 13.2025 15.2359 13.1003 15.3112C12.9981 15.3865 12.8758 15.4298 12.749 15.4354C12.6221 15.441 12.4965 15.4088 12.388 15.3428L8.02532 12.6828V12.6841Z" fill="#FFCC00"/>
</svg>
